<?xml version="1.0"?>
<svg xmlns="http://www.w3.org/2000/svg" viewBox="0 0 24 24" width="24px" height="24px">
    <path d="M 6 0 C 2.7 0 0 2.7 0 6 C 0 9.3 2.7 12 6 12 C 9.3 12 12 9.3 12 6 C 12 2.7 9.3 0 6 0 z M 6 2 C 8.2 2 10 3.8 10 6 C 10 8.2 8.2 10 6 10 C 3.8 10 2 8.2 2 6 C 2 3.8 3.8 2 6 2 z M 17 2 C 16.448 2 16 2.448 16 3 L 16 4 L 13.738281 4 C 13.903281 4.64 14 5.308 14 6 C 14 7.062 13.788109 8.073 13.412109 9 L 19 9 L 19.001953 20 L 5 20 L 5 15 C 5 14.448 4.552 14 4 14 C 3.448 14 3 14.448 3 15 L 3 20 C 3 21.105 3.895 22 5 22 L 19 22 C 20.105 22 21 21.105 21 20 L 21 6 C 21 4.895 20.105 4 19 4 L 18 4 L 18 3 C 18 2.448 17.552 2 17 2 z M 6.9003906 3.1992188 L 5.1992188 6.0996094 L 7.4003906 8.3007812 L 8.3007812 7.3007812 L 6.8007812 5.9003906 L 8 3.8007812 L 6.9003906 3.1992188 z"/>
</svg>
