<?xml version="1.0"?>
<svg xmlns="http://www.w3.org/2000/svg" viewBox="0 0 24 24" width="24px" height="24px">
    <path d="M 3.984375 2.9863281 A 1.0001 1.0001 0 0 0 3 4 L 3 20 A 1.0001 1.0001 0 0 0 4 21 L 20 21 A 1.0001 1.0001 0 1 0 20 19 L 5 19 L 5 4 A 1.0001 1.0001 0 0 0 3.984375 2.9863281 z M 13 4 A 2 2 0 0 0 11 6 A 2 2 0 0 0 13 8 A 2 2 0 0 0 15 6 A 2 2 0 0 0 13 4 z M 8 5 A 1 1 0 0 0 7 6 A 1 1 0 0 0 8 7 A 1 1 0 0 0 9 6 A 1 1 0 0 0 8 5 z M 18 5 A 1 1 0 0 0 17 6 A 1 1 0 0 0 18 7 A 1 1 0 0 0 19 6 A 1 1 0 0 0 18 5 z M 18 9 A 2 2 0 0 0 16 11 A 2 2 0 0 0 18 13 A 2 2 0 0 0 20 11 A 2 2 0 0 0 18 9 z M 8 10 A 1 1 0 0 0 7 11 A 1 1 0 0 0 8 12 A 1 1 0 0 0 9 11 A 1 1 0 0 0 8 10 z M 13 14 A 2 2 0 0 0 11 16 A 2 2 0 0 0 13 18 A 2 2 0 0 0 15 16 A 2 2 0 0 0 13 14 z M 8 15 A 1 1 0 0 0 7 16 A 1 1 0 0 0 8 17 A 1 1 0 0 0 9 16 A 1 1 0 0 0 8 15 z M 18 15 A 1 1 0 0 0 17 16 A 1 1 0 0 0 18 17 A 1 1 0 0 0 19 16 A 1 1 0 0 0 18 15 z"/>
</svg>
