<?xml version="1.0"?>
<svg xmlns="http://www.w3.org/2000/svg" viewBox="0 0 24 24" width="24px" height="24px">
    <path d="M 8.5429688 2.015625 C 8.1734687 2.0396563 7.7974688 2.0927344 7.4179688 2.1777344 C 4.7469688 2.7757344 2.627 4.9701563 2.125 7.6601562 C 1.21 12.559156 5.4417969 16.790047 10.341797 15.873047 C 11.559762 15.645207 12.663361 15.072765 13.574219 14.28125 L 14 14.707031 L 14 15.585938 C 14 15.850937 14.104969 16.104969 14.292969 16.292969 L 19 21 C 19.552 21.552 20.448 21.552 21 21 C 21.552 20.448 21.552 19.552 21 19 L 16.292969 14.292969 C 16.105969 14.104969 15.850938 14 15.585938 14 L 14.707031 14 L 14.279297 13.572266 C 15.046203 12.687256 15.610242 11.622993 15.851562 10.445312 C 16.164131 8.9235959 15.967801 7.4741123 15.412109 6.2148438 L 16 5.34375 L 18.171875 8.5605469 A 1.0001 1.0001 0 0 0 19 9 L 21 9 A 1.0001 1.0001 0 1 0 21 7 L 19.53125 7 L 16.828125 2.9980469 A 1.0001 1.0001 0 0 0 15.976562 2.5566406 A 1.0001 1.0001 0 0 0 15.171875 2.9980469 L 12.46875 7 L 10 7 A 1.0001 1.0001 0 0 0 9.28125 7.3046875 L 8.4921875 8.1191406 L 7.7265625 7.3125 A 1.0001 1.0001 0 0 0 7 7 L 4.4257812 7 C 5.0294631 5.6389546 6.2338912 4.5695544 7.6992188 4.1757812 C 8.8332188 3.8707812 9.9047969 3.9812344 10.841797 4.3652344 C 11.287797 4.5482344 11.798359 4.4078125 12.068359 4.0078125 C 12.415359 3.4938125 12.22925 2.7662969 11.65625 2.5292969 C 10.70525 2.1347969 9.6514688 1.9435312 8.5429688 2.015625 z M 13.953125 8.375 C 14.044997 9.0715307 13.992636 9.8150618 13.740234 10.585938 C 13.218234 12.176937 11.888672 13.44275 10.263672 13.84375 C 6.9630241 14.657953 4.0042324 12.168668 4.0039062 9 L 6.5703125 9 L 7.7578125 10.251953 A 1.0001 1.0001 0 0 0 9.2011719 10.261719 L 10.423828 9 L 13 9 A 1.0001 1.0001 0 0 0 13.828125 8.5605469 L 13.953125 8.375 z"/>
</svg>
