<?xml version="1.0"?>
<svg xmlns="http://www.w3.org/2000/svg" viewBox="0 0 24 24" width="24px" height="24px">
    <path d="M 3 2 C 1.895 2 1 2.895 1 4 L 1 16 C 1 17.105 1.895 18 3 18 L 10 18 L 10 20 L 9 20 C 8.448 20 8 20.448 8 21 C 8 21.552 8.448 22 9 22 L 15 22 C 15.552 22 16 21.552 16 21 C 16 20.448 15.552 20 15 20 L 14 20 L 14 18 L 21 18 C 22.105 18 23 17.105 23 16 L 23 4 C 23 2.895 22.105 2 21 2 L 3 2 z M 3 4 L 21 4 L 21 16 L 3 16 L 3 11 L 4.5859375 11 C 5.1159375 11 5.625 10.789063 6 10.414062 L 7.8007812 8.6113281 L 9.4824219 11.416016 C 10.151422 12.532016 11.691328 12.720781 12.611328 11.800781 L 13.414062 11 L 15.271484 11 A 2 2 0 0 0 17 12 A 2 2 0 0 0 19 10 A 2 2 0 0 0 17 8 A 2 2 0 0 0 15.269531 9 L 13.414062 9 C 12.883063 9 12.375 9.2109375 12 9.5859375 L 11.199219 10.388672 L 9.5175781 7.5839844 C 8.8475781 6.4679844 7.3077187 6.2792187 6.3867188 7.1992188 L 4.5859375 9 L 3 9 L 3 4 z"/>
</svg>
