<?xml version="1.0"?>
<svg xmlns="http://www.w3.org/2000/svg" viewBox="0 0 24 24" width="24px" height="24px">
    <path d="M 21.330078 2.1015625 L 17.679688 2.6523438 C 17.273688 2.7133437 17.110391 3.21 17.400391 3.5 L 18.242188 4.34375 L 15.177734 7.4082031 L 14.283203 6.5703125 A 1.0001 1.0001 0 0 0 12.884766 6.6015625 L 9.4921875 10.078125 L 8.7070312 9.2929688 A 1.0001 1.0001 0 0 0 7.3007812 9.2851562 L 3.3027344 13.203125 A 1.0001 1.0001 0 1 0 4.703125 14.630859 L 7.9921875 11.40625 L 8.7929688 12.207031 A 1.0001 1.0001 0 0 0 10.214844 12.199219 L 13.630859 8.6992188 L 14.515625 9.5292969 A 1.0001 1.0001 0 0 0 15.90625 9.5078125 L 19.65625 5.7578125 L 20.5 6.5996094 C 20.79 6.8896094 21.286656 6.7263125 21.347656 6.3203125 L 21.898438 2.6699219 C 21.948438 2.3369219 21.663078 2.0515625 21.330078 2.1015625 z M 19.984375 9.9863281 A 1.0001 1.0001 0 0 0 19 11 L 19 20 A 1.0001 1.0001 0 1 0 21 20 L 21 11 A 1.0001 1.0001 0 0 0 19.984375 9.9863281 z M 15.984375 11.986328 A 1.0001 1.0001 0 0 0 15 13 L 15 20 A 1.0001 1.0001 0 1 0 17 20 L 17 13 A 1.0001 1.0001 0 0 0 15.984375 11.986328 z M 11.984375 13.986328 A 1.0001 1.0001 0 0 0 11 15 L 11 20 A 1.0001 1.0001 0 1 0 13 20 L 13 15 A 1.0001 1.0001 0 0 0 11.984375 13.986328 z M 7.984375 15.986328 A 1.0001 1.0001 0 0 0 7 17 L 7 20 A 1.0001 1.0001 0 1 0 9 20 L 9 17 A 1.0001 1.0001 0 0 0 7.984375 15.986328 z M 3.984375 17.986328 A 1.0001 1.0001 0 0 0 3 19 L 3 20 A 1.0001 1.0001 0 1 0 5 20 L 5 19 A 1.0001 1.0001 0 0 0 3.984375 17.986328 z"/>
</svg>
