<?xml version="1.0"?>
<svg xmlns="http://www.w3.org/2000/svg" viewBox="0 0 24 24" width="24px" height="24px">
    <path d="M 8.4960938 3.9179688 C 8.2402187 3.9179688 7.9840625 4.0154375 7.7890625 4.2109375 L 0.70703125 11.292969 C 0.31603125 11.683969 0.31603125 12.317031 0.70703125 12.707031 L 7.7890625 19.789062 C 8.1800625 20.180063 8.813125 20.180063 9.203125 19.789062 L 12.994141 15.998047 C 13.385141 15.607047 13.383188 14.973031 12.992188 14.582031 L 9.4042969 11 C 9.0142969 10.61 8.3821875 10.610953 7.9921875 11.001953 C 7.6021875 11.392953 7.6011875 12.026016 7.9921875 12.416016 L 10.873047 15.292969 L 8.4960938 17.667969 L 2.828125 12 L 8.4746094 6.3535156 L 8.890625 6.7265625 C 9.335625 7.0905625 9.7955781 7.0555 10.267578 6.6875 C 10.657578 6.2965 10.656625 5.6644375 10.265625 5.2734375 L 9.203125 4.2109375 C 9.007625 4.0154375 8.7519688 3.9179688 8.4960938 3.9179688 z M 15.503906 3.9179688 C 15.248031 3.9179688 14.991875 4.0154375 14.796875 4.2109375 L 11.017578 7.9902344 C 10.626578 8.3812344 10.626578 9.01525 11.017578 9.40625 L 14.605469 12.988281 C 14.995469 13.377281 15.629531 13.377328 16.019531 12.986328 C 16.409531 12.595328 16.408578 11.962266 16.017578 11.572266 L 13.138672 8.6972656 L 15.503906 6.3320312 L 21.171875 12 L 15.525391 17.646484 L 15.132812 17.296875 C 14.711813 16.878875 14.198859 16.892937 13.755859 17.335938 C 13.365859 17.726937 13.366812 18.357047 13.757812 18.748047 L 14.796875 19.789062 C 15.187875 20.180062 15.820938 20.180062 16.210938 19.789062 L 23.292969 12.707031 C 23.683969 12.316031 23.683969 11.682969 23.292969 11.292969 L 16.210938 4.2109375 C 16.015438 4.0154375 15.759781 3.9179688 15.503906 3.9179688 z"/>
</svg>
