<?xml version="1.0"?>
<svg xmlns="http://www.w3.org/2000/svg" viewBox="0 0 50 50" width="50px" height="50px">
    <path d="M 7 2 L 7 48 L 43 48 L 43 14.599609 L 30.400391 2 L 7 2 z M 30 4.4003906 L 40.599609 15 L 30 15 L 30 4.4003906 z M 14 10 L 27 10 L 27 12 L 14 12 L 14 10 z M 14 14 L 27 14 L 27 16 L 14 16 L 14 14 z M 14 18 L 37 18 L 37 20 L 14 20 L 14 18 z M 14 22 L 37 22 L 37 24 L 14 24 L 14 22 z M 14 26 L 24 26 L 24 28 L 14 28 L 14 26 z M 31 28 C 35.411 28 39 31.589 39 36 C 39 40.411 35.411 44 31 44 C 26.589 44 23 40.411 23 36 C 23 31.589 26.589 28 31 28 z M 31 30 C 27.691 30 25 32.691 25 36 C 25 39.309 27.691 42 31 42 C 34.309 42 37 39.309 37 36 C 37 32.691 34.309 30 31 30 z M 30 32 L 32 32 L 32 35 L 35 35 L 35 37 L 32 37 L 32 40 L 30 40 L 30 37 L 27 37 L 27 35 L 30 35 L 30 32 z"/>
</svg>
