<?xml version="1.0"?>
<svg class="svg_icon" xmlns="http://www.w3.org/2000/svg" viewBox="0 0 20 20" width="20px" height="20px">
<style type="text/css">
    <![CDATA[
    .svg_icon path{fill:#7e7e94;}
    ]]>
</style>
    <path d="M 18 2 C 17.714625 2 17.430391 2.1081719 17.212891 2.3261719 L 14.490234 5.0488281 C 14.138234 5.3998281 14.387766 6 14.884766 6 L 17 6 L 17 12 C 17 12.56503 16.56503 13 16 13 L 10 13 A 1.0001 1.0001 0 1 0 10 15 L 16 15 C 17.64497 15 19 13.64497 19 12 L 19 6 L 21.115234 6 C 21.611234 6 21.860766 5.3998281 21.509766 5.0488281 L 18.789062 2.3261719 C 18.571063 2.1081719 18.285375 2 18 2 z M 8 9 C 6.3550302 9 5 10.35503 5 12 L 5 18 L 2.8847656 18 C 2.3887656 18 2.1392344 18.600172 2.4902344 18.951172 L 5.2109375 21.673828 C 5.6469375 22.109828 6.3521094 22.109828 6.7871094 21.673828 L 9.5097656 18.951172 C 9.8617656 18.600172 9.6122344 18 9.1152344 18 L 7 18 L 7 12 C 7 11.43497 7.4349698 11 8 11 L 14 11 A 1.0001 1.0001 0 1 0 14 9 L 8 9 z"/>
</svg>
