<?xml version="1.0"?>
<svg class="svg_icon"  xmlns="http://www.w3.org/2000/svg" viewBox="0 0 24 24" width="24px" height="24px">
<style type="text/css">
    <![CDATA[
    .svg_icon path{fill:#85c406;}
    ]]>
</style>
    <path d="M12,2C6.486,2,2,6.486,2,12s4.486,10,10,10s10-4.486,10-10S17.514,2,12,2z M16.898,18.312l-5.84-5.84 C10.755,12.17,10.346,12,9.919,12H4.523c-0.285,0-0.525-0.24-0.506-0.524c0.26-3.994,3.464-7.199,7.459-7.459 C11.76,3.999,12,4.238,12,4.523v5.396c0,0.427,0.17,0.836,0.471,1.138l5.84,5.84C17.901,17.426,17.426,17.901,16.898,18.312z"/>
</svg>
